<?xml version="1.0" encoding="UTF-8"?>
<svg version="1.1" xmlns="http://www.w3.org/2000/svg" width="1024" height="1024">
<path d="M0 0 C0.97453125 0.01256836 1.9490625 0.02513672 2.953125 0.03808594 C14.93345273 0.22623852 26.65737591 0.99918465 38.5 2.875 C39.5199707 3.03645508 40.53994141 3.19791016 41.59082031 3.36425781 C46.9166467 4.27518461 51.93512175 5.47568925 57.0144043 7.3269043 C59.09772961 8.03312929 61.15692618 8.50566422 63.3125 8.9375 C78.43299657 12.14010518 92.38435175 19.02572749 106.0534668 26.01293945 C108.08100667 27.04107738 110.1203299 28.04337147 112.16015625 29.046875 C117.36147827 31.64627202 122.15626492 34.7916497 127 38 C127.87205078 38.57669434 127.87205078 38.57669434 128.76171875 39.16503906 C130.5767843 40.37153519 132.38336902 41.58972483 134.1875 42.8125 C134.76459717 43.19752686 135.34169434 43.58255371 135.9362793 43.97924805 C137.32785135 44.93438115 138.66953626 45.96143451 140 47 C140 47.66 140 48.32 140 49 C140.54785156 49.06574219 141.09570312 49.13148438 141.66015625 49.19921875 C144.99073779 50.33906719 146.89281015 52.40192695 149.4375 54.8125 C152.16637215 57.38196654 154.84165258 59.87637401 157.796875 62.18359375 C160.15349025 64.12654781 160.6805163 65.01815211 161 68 C158.76250263 68.75520558 157.44389809 69.13803108 155.15649414 68.42675781 C154.23018188 67.94480957 154.23018188 67.94480957 153.28515625 67.453125 C152.59873047 67.1025 151.91230469 66.751875 151.20507812 66.390625 C150.49802734 66.01421875 149.79097656 65.6378125 149.0625 65.25 C148.35931641 64.8890625 147.65613281 64.528125 146.93164062 64.15625 C143.96951708 62.62382994 141.0743857 61.04492395 138.21875 59.3203125 C135.7085394 57.82656042 133.11577127 56.86733133 130.37109375 55.88671875 C127.53897584 54.82759064 124.7776571 53.63192758 122 52.4375 C117.3523173 50.4774924 112.90142959 49.13783187 108 48 C107.40574219 47.69191406 106.81148437 47.38382813 106.19921875 47.06640625 C86.25636054 37.39606825 59.55835702 37.27907745 38 38 C38.59723877 38.09498779 39.19447754 38.18997559 39.80981445 38.2878418 C50.44624984 40.00142757 61.01548554 41.80345261 71.4375 44.5625 C72.56055542 44.85870239 72.56055542 44.85870239 73.70629883 45.16088867 C78.58886243 46.49840384 83.28373789 48.16772503 88 50 C89.53333984 50.56460938 89.53333984 50.56460938 91.09765625 51.140625 C99.62351521 54.33080148 107.8075415 58.05039193 116 62 C116.88429688 62.42152344 117.76859375 62.84304687 118.6796875 63.27734375 C137.91221237 72.64137635 155.59088796 84.61416575 172.41162109 97.76123047 C173.95290821 98.96327332 175.50173723 100.15562622 177.05078125 101.34765625 C177.96214844 102.05792969 178.87351562 102.76820313 179.8125 103.5 C180.62332031 104.1290625 181.43414063 104.758125 182.26953125 105.40625 C182.84058594 105.9321875 183.41164063 106.458125 184 107 C184 107.66 184 108.32 184 109 C184.556875 109.04125 185.11375 109.0825 185.6875 109.125 C188.55948991 110.21169889 189.74191736 111.95289666 191.58984375 114.33203125 C193.06180474 116.07310423 194.61065183 117.43431302 196.375 118.875 C201.03424158 122.74748368 206.05458845 127.16376534 208 133 C208.99 133.33 209.98 133.66 211 134 C212.33105469 135.40771484 212.33105469 135.40771484 213.671875 137.2109375 C214.16800293 137.87335449 214.66413086 138.53577148 215.17529297 139.21826172 C215.69494629 139.92998535 216.21459961 140.64170898 216.75 141.375 C217.28641113 142.10090332 217.82282227 142.82680664 218.37548828 143.57470703 C222.51679507 149.22694666 226.36715816 155.00768357 230 161 C230.52078125 161.804375 231.0415625 162.60875 231.578125 163.4375 C235.12685468 169.02943768 237.5905932 174.68921539 239.82421875 180.921875 C240.95509231 184.03656865 240.95509231 184.03656865 242.51953125 187.02734375 C254.78207255 211.64949131 253.59151516 242.43440639 245.1875 267.9375 C240.34031414 280.15013625 232.24638763 292.59201437 222 301 C221.34 301 220.68 301 220 301 C220 301.66 220 302.32 220 303 C214.45790018 307.60558758 207.3711413 312 200 312 C200.27486308 306.64016987 202.47819536 303.5370777 205.4453125 299.28515625 C217.0459833 282.23391903 221.62744061 255.05120479 218.08203125 235 C217.67524492 232.99660196 217.25176217 230.99652888 216.8125 229 C216.4719458 227.4236377 216.4719458 227.4236377 216.12451172 225.81542969 C213.37815728 213.59633509 208.56730355 203.61946956 202 193 C201.37351562 191.9790625 200.74703125 190.958125 200.1015625 189.90625 C197.06600335 184.82836926 197.06600335 184.82836926 193.296875 180.31640625 C192 179 192 179 192 177 C191.41089844 176.74992188 190.82179688 176.49984375 190.21484375 176.2421875 C187.70690295 174.83561753 186.37575422 173.34445666 184.5625 171.125 C181.93315004 167.99698022 179.2144065 165.5325627 176 163 C176 162.34 176 161.68 176 161 C175.18208984 160.62101562 175.18208984 160.62101562 174.34765625 160.234375 C171.55569636 158.76638943 169.0374388 157.03637606 166.4375 155.25 C160.78142131 151.46104281 155.08516429 148.05089521 149 145 C147.55367187 144.24396484 147.55367187 144.24396484 146.078125 143.47265625 C120.04428699 130.99546315 88.19912678 130.8310649 61.13354492 140.12255859 C54.53000332 142.59637836 47.33631346 145.30211682 42 150 C40.70829092 153.1982633 40.70829092 153.1982633 41 156 C46.87125075 156.31768291 52.16783073 156.10961004 57.875 154.625 C63.79365254 153.1293884 69.62413522 152.3833077 75.6875 151.8125 C76.5542334 151.72887207 77.4209668 151.64524414 78.31396484 151.55908203 C111.5050048 148.62990504 143.15217219 157.4295766 169.953125 177.17578125 C170.96632813 178.07876953 170.96632813 178.07876953 172 179 C172 179.66 172 180.32 172 181 C172.58394531 181.27199219 173.16789062 181.54398438 173.76953125 181.82421875 C184.62976451 187.54914031 191.33174457 199.53552844 197 210 C197.48855469 210.78890625 197.97710938 211.5778125 198.48046875 212.390625 C208.54321673 229.67061381 211.0761178 253.30361083 206.375 272.5625 C204.39281918 279.48955183 201.58287706 285.76101675 198 292 C197.48566406 292.93457031 196.97132813 293.86914062 196.44140625 294.83203125 C195.96574219 295.54746094 195.49007813 296.26289063 195 297 C194.34 297 193.68 297 193 297 C192.7628125 297.56203125 192.525625 298.1240625 192.28125 298.703125 C190.71052303 301.51894042 188.78528536 303.47955416 186.5 305.75 C185.7059375 306.54921875 184.911875 307.3484375 184.09375 308.171875 C182 310 182 310 180 310 C179.67 310.99 179.34 311.98 179 313 C174.11048764 316.42265865 171.10575128 317.49842868 165 317 C166.43561686 313.81293058 168.20266329 311.37830895 170.5 308.75 C171.1084375 308.04359375 171.716875 307.3371875 172.34375 306.609375 C174 305 174 305 176 305 C176.33 303.68 176.66 302.36 177 301 C177.66 301 178.32 301 179 301 C179.433125 299.329375 179.433125 299.329375 179.875 297.625 C181 294 181 294 183 292 C189.89214645 277.18440052 188.61948508 259.61816561 183.3515625 244.53515625 C181.80187011 240.48177008 180.27036034 236.69787788 178 233 C177.43925781 232.07316406 176.87851562 231.14632812 176.30078125 230.19140625 C173.17334947 224.95408703 173.17334947 224.95408703 169.28515625 220.30078125 C168 219 168 219 168 217 C166.68 216.34 165.36 215.68 164 215 C164 214.34 164 213.68 164 213 C163.44699219 212.75507813 162.89398437 212.51015625 162.32421875 212.2578125 C159.53442486 210.74804169 157.27846348 208.87142177 154.8125 206.875 C134.15594209 190.94170086 110.41557567 188.06829072 85 190 C78.09071957 190.8990389 71.55735897 192.67915308 65 195 C64.23880859 195.2676416 63.47761719 195.5352832 62.69335938 195.81103516 C53.38963976 199.17860288 45.17271243 203.384735 37 209 C36.23945313 209.433125 35.47890625 209.86625 34.6953125 210.3125 C30.93008089 212.6698624 27.56200761 215.44257509 24.125 218.25 C23.44308594 218.79785156 22.76117188 219.34570312 22.05859375 219.91015625 C7.26528755 231.94204529 -4.12010087 247.64096022 -12 265 C-12.54527344 266.17175781 -13.09054687 267.34351563 -13.65234375 268.55078125 C-17.6066512 277.18826662 -20.82150576 285.72503742 -23 295 C-23.18191895 295.71671875 -23.36383789 296.4334375 -23.55126953 297.171875 C-29.86654156 322.62514385 -29.38402037 350.88780101 -22 376 C-21.63800803 377.32125504 -21.27721974 378.6428408 -20.91796875 379.96484375 C-19.11504641 386.23556567 -16.86150045 392.14328413 -14 398 C-13.72140137 398.58152832 -13.44280273 399.16305664 -13.15576172 399.76220703 C-7.30352451 411.95563329 -0.74348129 423.08695452 7.71240234 433.67456055 C9.6545857 436.1252663 11.00132481 438.00397442 12 441 C13.32710361 441.67898324 14.66136469 442.34404441 16 443 C17.74609375 444.8046875 17.74609375 444.8046875 19.4375 446.875 C22.06684996 450.00301978 24.7855935 452.4674373 28 455 C28 455.66 28 456.32 28 457 C28.86625 457.4021875 28.86625 457.4021875 29.75 457.8125 C32.05550043 459.02929189 34.02056192 460.30333879 36 462 C36 462.66 36 463.32 36 464 C37.0209375 464.3403125 37.0209375 464.3403125 38.0625 464.6875 C41.6988709 466.31226146 45.02829263 468.32803257 48 471 C48 471.66 48 472.32 48 473 C48.57234375 473.11472656 49.1446875 473.22945312 49.734375 473.34765625 C52.21471656 474.06182356 54.06368697 475.07307872 56.25 476.4375 C57.30960937 477.08525391 57.30960937 477.08525391 58.390625 477.74609375 C58.92171875 478.15988281 59.4528125 478.57367187 60 479 C60 479.66 60 480.32 60 481 C60.639375 481.06703125 61.27875 481.1340625 61.9375 481.203125 C66.34473395 482.34990526 70.02869671 484.5590175 74 486.75 C81.52642978 490.80766491 88.91327926 494.19286062 97 497 C98.93812072 497.70663318 100.87564394 498.41490777 102.8125 499.125 C104.16214844 499.60839844 104.16214844 499.60839844 105.5390625 500.1015625 C107.60554864 500.85599395 109.64974869 501.67108421 111.6875 502.5 C118.30441554 504.93850473 125.11880828 506.52352914 132 508 C132.83112305 508.18771973 133.66224609 508.37543945 134.51855469 508.56884766 C151.44428656 512.23039589 168.37722896 512.427163 185.625 512.5 C186.73950531 512.51035278 187.85401062 512.52070557 189.00228882 512.53137207 C209.48240498 512.68110225 229.71281084 510.76215144 249.375 504.75 C251.17357027 504.2208591 252.9730111 503.69466548 254.7734375 503.171875 C255.52028809 502.9459668 256.26713867 502.72005859 257.03662109 502.48730469 C259 502 259 502 262 502 C261.4243483 505.33877987 260.60622183 506.84274916 258 509 C255.88510532 510.0053494 253.73318118 510.9340638 251.5625 511.8125 C245.7107383 514.21412545 240.10752977 516.91515533 234.5234375 519.8984375 C232 521 232 521 228 521 C228 521.66 228 522.32 228 523 C226.576875 523.928125 226.576875 523.928125 225.125 524.875 C221.50053601 527.24061065 221.50053601 527.24061065 220 531 C219.60185364 534.47440615 219.60185364 534.47440615 221 538 C231.67504097 549.06943904 251.44675897 549.8200236 265.94140625 550.1875 C294.68540553 550.61088687 319.66541665 545.49145455 346 534 C346.78246094 533.66097656 347.56492187 533.32195313 348.37109375 532.97265625 C357.04961472 529.1501697 365.05063705 524.81363345 373.046875 519.70703125 C375.49293035 518.29310772 377.24965838 517.44726429 380 517 C380 516.34 380 515.68 380 515 C381.72421427 513.78514615 383.50634884 512.65181296 385.3125 511.5625 C388.59771439 509.57419378 391.3051273 507.71145654 394 505 C394.66 505 395.32 505 396 505 C396.33 504.01 396.66 503.02 397 502 C398.61457079 500.56418526 400.29219075 499.19855217 402 497.875 C414.24460885 488.066657 423.67096477 476.27712958 432.95703125 463.7265625 C434.29681564 461.93847549 435.67382219 460.17755908 437.08984375 458.44921875 C448.05368826 444.39128315 457.54513209 423.09313449 462 406 C462.52520606 404.01901446 463.05220175 402.03851117 463.57958984 400.05810547 C463.93776359 398.70653668 464.29237191 397.354017 464.64306641 396.00048828 C465.89291979 391.21416042 465.89291979 391.21416042 467 389 C467.12726645 387.37664577 467.22805631 385.7511442 467.3125 384.125 C467.6312419 380.68358355 467.8426706 379.23328152 469.8125 376.3125 C472 375 472 375 474.125 375.0625 C476 376 476 376 478 379 C481.06877168 401.30211976 473.21232161 428.91231795 466 450 C465.76442383 450.6914209 465.52884766 451.3828418 465.28613281 452.09521484 C459.24430234 469.64078152 451.4538397 486.04791074 442 502 C440.65925644 504.32918349 439.32927307 506.6642354 438 509 C437.34 509 436.68 509 436 509 C435.89558594 509.5775 435.79117188 510.155 435.68359375 510.75 C434.8941049 513.34854617 433.75252379 514.8843712 432.0625 517 C430.01634748 519.57402971 428.38115104 522.0108422 427 525 C426.34 525 425.68 525 425 525 C424.7628125 525.70511719 424.525625 526.41023437 424.28125 527.13671875 C422.77497827 530.50286868 420.84415483 532.96983173 418.5 535.8125 C417.30890625 537.27623047 417.30890625 537.27623047 416.09375 538.76953125 C415.05734375 539.87361328 415.05734375 539.87361328 414 541 C413.34 541 412.68 541 412 541 C411.73445312 541.58136719 411.46890625 542.16273438 411.1953125 542.76171875 C407.4501331 549.77475076 399.62596218 558.45801261 392 561 C391.74992188 561.56332031 391.49984375 562.12664063 391.2421875 562.70703125 C389.32406256 566.247721 386.28117821 568.26090678 383.125 570.6875 C382.49980469 571.18572266 381.87460937 571.68394531 381.23046875 572.19726562 C378.14944981 574.59759433 375.89143511 576.23350521 372 577 C372 577.66 372 578.32 372 579 C370.13671875 580.5078125 370.13671875 580.5078125 367.6875 582.125 C366.88699219 582.66382813 366.08648438 583.20265625 365.26171875 583.7578125 C363 585 363 585 360 585 C360 585.66 360 586.32 360 587 C353.73832035 591.66019015 346.35352377 594.9262325 339.3671875 598.34375 C337.38158571 599.32042652 335.40372484 600.31363709 333.4453125 601.34375 C314.94108604 611.06314168 293.51698887 617.31945733 273 621 C271.98728027 621.18336914 270.97456055 621.36673828 269.93115234 621.55566406 C234.66731226 627.67544955 196.33774411 627.81274491 161.57324219 618.67163086 C158.56928106 617.8875799 155.54757324 617.27696482 152.5 616.6875 C134.44177848 612.86059213 116.74398157 606.7432642 100 599 C98.64586325 598.41659721 97.29169502 597.83326752 95.9375 597.25 C83.9113016 591.88639932 72.32572408 585.70482866 61 579 C60.38334473 578.6380957 59.76668945 578.27619141 59.13134766 577.90332031 C57.29028007 576.81966898 55.45653299 575.72467506 53.625 574.625 C52.54476563 573.97789062 51.46453125 573.33078125 50.3515625 572.6640625 C49.57554687 572.11492188 48.79953125 571.56578125 48 571 C48 570.34 48 569.68 48 569 C47.45472656 568.9175 46.90945313 568.835 46.34765625 568.75 C43.18520935 567.73970082 41.06995616 566.01903428 38.4375 564 C37.9108374 563.59700684 37.3841748 563.19401367 36.84155273 562.77880859 C31.46326047 558.63819191 26.21285785 554.34639635 21 550 C19.80739466 549.01940597 18.61468129 548.03894333 17.421875 547.05859375 C16.21832808 546.06040434 15.0151966 545.06171378 13.8125 544.0625 C12.94637085 543.35311279 12.94637085 543.35311279 12.06274414 542.62939453 C10.67033245 541.46372344 9.32972197 540.23670485 8 539 C8 538.34 8 537.68 8 537 C6.68 536.34 5.36 535.68 4 535 C4 534.34 4 533.68 4 533 C2.68 532.34 1.36 531.68 0 531 C0 530.34 0 529.68 0 529 C-0.57621094 528.76925781 -1.15242188 528.53851562 -1.74609375 528.30078125 C-4.57806169 526.66638728 -6.04658486 524.76108886 -8.0625 522.1875 C-8.84496094 521.20265625 -9.62742187 520.2178125 -10.43359375 519.203125 C-11.05596924 518.41905273 -11.05596924 518.41905273 -11.69091797 517.61914062 C-13.48356532 515.4019013 -15.34380329 513.24636568 -17.20532227 511.08691406 C-30.8382693 495.24784439 -30.8382693 495.24784439 -32 489 C-32.66 489 -33.32 489 -34 489 C-25.36389804 514.90830589 -4.46738673 539.22288461 13.52734375 559.33984375 C15.06092071 561.06867719 16.52706187 562.84439855 18 564.625 C20.54849072 567.61522911 23.33687829 570.10765387 26.35546875 572.61328125 C29.38611749 575.16881641 32.09870605 578.04443459 34.81640625 580.92578125 C41.34051196 587.69018552 48.53216154 593.3351735 56 599 C56.54124512 599.41314453 57.08249023 599.82628906 57.64013672 600.25195312 C82.64636871 619.50239126 82.64636871 619.50239126 111 633 C111 634.32 111 635.64 111 637 C104.23877806 637.2390331 98.4194717 636.46548825 91.875 634.8125 C90.96065186 634.58763916 90.04630371 634.36277832 89.10424805 634.13110352 C77.74529199 631.27321046 66.81622251 627.49148223 56 623 C54.72442958 622.49100493 53.44834239 621.98330393 52.171875 621.4765625 C38.53523306 616.02285173 25.45958113 609.80739003 13 602 C10.31875407 600.36832073 7.62158265 598.78681382 4.88671875 597.24609375 C3.83097656 596.64925781 2.77523438 596.05242188 1.6875 595.4375 C0.61886719 594.83808594 -0.44976562 594.23867188 -1.55078125 593.62109375 C-2.35902344 593.08613281 -3.16726563 592.55117188 -4 592 C-4 591.34 -4 590.68 -4 590 C-4.680625 589.773125 -5.36125 589.54625 -6.0625 589.3125 C-9.6988709 587.68773854 -13.02829263 585.67196743 -16 583 C-16 582.34 -16 581.68 -16 581 C-17.32 580.67 -18.64 580.34 -20 580 C-20 579.34 -20 578.68 -20 578 C-20.55300781 577.75507812 -21.10601562 577.51015625 -21.67578125 577.2578125 C-29.70575149 572.91218155 -37.64196061 565.54642575 -44 559 C-44 558.34 -44 557.68 -44 557 C-45.32 556.34 -46.64 555.68 -48 555 C-48 554.34 -48 553.68 -48 553 C-49.32 552.34 -50.64 551.68 -52 551 C-52 550.34 -52 549.68 -52 549 C-52.59941406 548.73445312 -53.19882812 548.46890625 -53.81640625 548.1953125 C-57.75024392 546.04190583 -60.1779137 542.42367489 -63 539 C-63.73114014 538.11924805 -63.73114014 538.11924805 -64.47705078 537.22070312 C-80.28400878 518.15138712 -95.13195535 497.31710419 -104.9375 474.4375 C-106.23089182 471.470307 -107.61912239 468.55246053 -109 465.625 C-114.55661907 453.59031247 -118.89192278 440.91169817 -121.56640625 427.91796875 C-122.01580624 425.77371028 -122.01580624 425.77371028 -123.0625 422.875 C-124.13038567 419.6001506 -124.59031236 416.41406366 -125 413 C-129.26610835 421.5322167 -125.18051153 437.08043957 -124.2644043 446.24316406 C-124.08201941 448.14481697 -123.91515117 450.04800001 -123.76098633 451.95214844 C-123.68259521 452.91282227 -123.6042041 453.87349609 -123.5234375 454.86328125 C-123.45688965 455.72606689 -123.3903418 456.58885254 -123.32177734 457.4777832 C-122.87250588 460.99934879 -121.85056877 464.24417434 -120.75 467.609375 C-120.04435636 469.8586141 -119.52765677 472.0658289 -119.0625 474.375 C-117.10370218 483.55382948 -113.63322429 492.36929723 -110 501 C-109.70480469 501.70253906 -109.40960938 502.40507813 -109.10546875 503.12890625 C-104.4839043 513.80767008 -99.18687367 524.14564967 -93 534 C-92.47921875 534.85851562 -91.9584375 535.71703125 -91.421875 536.6015625 C-86.15827381 545.13646723 -80.11946748 553.06223423 -73.69921875 560.7578125 C-72 563 -72 563 -72 565 C-71.01 565.33 -70.02 565.66 -69 566 C-67.45703125 567.53125 -67.45703125 567.53125 -65.8125 569.5 C-65.19890625 570.22058594 -64.5853125 570.94117188 -63.953125 571.68359375 C-62.98632812 572.83021484 -62.98632812 572.83021484 -62 574 C-56.4923557 580.44394383 -50.77817032 586.16729742 -44.1640625 591.47265625 C-42.74717364 592.61348461 -41.36899956 593.80212539 -40 595 C-40 595.66 -40 596.32 -40 597 C-39.1646875 597.0928125 -39.1646875 597.0928125 -38.3125 597.1875 C-35.69680941 598.10652642 -34.52617575 599.43792938 -32.65625 601.421875 C-26.08132396 607.68666302 -17.87025964 612.46776323 -10.23828125 617.3359375 C-9.49964844 617.88507812 -8.76101563 618.43421875 -8 619 C-8 619.66 -8 620.32 -8 621 C-7.43023437 621.10570312 -6.86046875 621.21140625 -6.2734375 621.3203125 C-3.63846737 622.10808707 -1.86923349 623.2922248 0.375 624.875 C3.79535803 627.28012809 7.24375289 629.16270522 11 631 C14.52732099 632.84304074 18.03521635 634.72302904 21.546875 636.59570312 C31.423978 641.86148065 31.423978 641.86148065 41.7421875 646.15625 C45.43293942 647.53549293 49.0501253 649.08939828 52.6796875 650.62109375 C53.77539062 651.07613281 54.87109375 651.53117188 56 652 C56.71857178 652.30558838 57.43714355 652.61117676 58.17749023 652.92602539 C64.76283915 655.66062502 71.43792258 657.68766286 78.3125 659.5625 C79.97333618 660.02027832 79.97333618 660.02027832 81.66772461 660.48730469 C94.33875684 663.95330069 107.06310276 666.72874665 120 669 C121.13429443 669.20157715 121.13429443 669.20157715 122.29150391 669.40722656 C124.67162851 669.82506956 127.05395448 670.22717082 129.4375 670.625 C130.13891113 670.74810547 130.84032227 670.87121094 131.56298828 670.99804688 C149.99801986 673.98327677 169.10079497 673.28298098 187.71166992 673.47680664 C191.33789933 673.5162607 194.96379572 673.56776092 198.58984375 673.62109375 C200.26614113 673.63371498 200.26614113 673.63371498 201.9763031 673.64659119 C203.00240189 673.66323318 204.02850067 673.67987518 205.08569336 673.69702148 C205.98928085 673.70732895 206.89286835 673.71763641 207.82383728 673.72825623 C210 674 210 674 212 676 C212.26991906 678.68839385 212.08737357 681.29141936 212 684 C205.73292235 687.04566484 199.60076523 689.09062739 192.8125 690.625 C191.43276001 690.94464722 191.43276001 690.94464722 190.02514648 691.27075195 C182.71165432 692.9259006 175.44247064 694.08206529 168 695 C166.92363281 695.17273438 165.84726562 695.34546875 164.73828125 695.5234375 C147.31151624 698.31657754 129.60469706 698.2528983 112 698 C111.03497559 697.99274902 110.06995117 697.98549805 109.07568359 697.97802734 C79.81799364 697.69425228 50.80098057 691.98065384 23 683 C21.27176783 682.49677946 19.54264193 681.99661481 17.8125 681.5 C-0.06621803 676.14157017 -17.49132448 667.63105477 -34 659 C-34.59280762 658.69320312 -35.18561523 658.38640625 -35.79638672 658.0703125 C-42.05687369 654.82297761 -48.06246237 651.41953704 -53.8671875 647.4140625 C-56.83140938 645.44877254 -59.92391929 643.76133372 -63.0546875 642.078125 C-64.75298242 641.13690131 -66.38442748 640.07704834 -68 639 C-68 638.34 -68 637.68 -68 637 C-68.53625 636.92523437 -69.0725 636.85046875 -69.625 636.7734375 C-72.95249965 635.68981097 -75.23755917 633.75898554 -78 631.625 C-79.03125 630.83351563 -80.0625 630.04203125 -81.125 629.2265625 C-82.07375 628.49179687 -83.0225 627.75703125 -84 627 C-84.78375 626.45085938 -85.5675 625.90171875 -86.375 625.3359375 C-86.91125 624.89507813 -87.4475 624.45421875 -88 624 C-88 623.34 -88 622.68 -88 622 C-88.82757813 621.63455078 -88.82757813 621.63455078 -89.671875 621.26171875 C-94.59980487 618.59104535 -98.72739356 614.59611042 -103 611 C-103.7425 610.38382813 -104.485 609.76765625 -105.25 609.1328125 C-109.19881449 605.78557522 -112.66229075 602.25929063 -116.0078125 598.3125 C-118.95070562 594.89643583 -122.02391037 591.60265768 -125.09301758 588.30004883 C-133 579.74114958 -133 579.74114958 -133 577 C-133.99 576.67 -134.98 576.34 -136 576 C-136 575.01 -136 574.02 -136 573 C-136.99 572.67 -137.98 572.34 -139 572 C-140.60546875 570.00390625 -140.60546875 570.00390625 -142.1875 567.5625 C-142.71730469 566.75941406 -143.24710938 565.95632813 -143.79296875 565.12890625 C-145 563 -145 563 -145 561 C-145.66 561 -146.32 561 -147 561 C-148.5078125 558.8828125 -148.5078125 558.8828125 -150.125 556.125 C-150.66382813 555.22007812 -151.20265625 554.31515625 -151.7578125 553.3828125 C-153 551 -153 551 -153 549 C-153.66 549 -154.32 549 -155 549 C-159.12279506 541.39603693 -163.20205124 533.76905771 -167.25 526.125 C-167.67394043 525.32924561 -168.09788086 524.53349121 -168.53466797 523.71362305 C-172.38822196 516.4169392 -175.47320243 508.92637097 -178.3125 501.1875 C-178.61373779 500.36652832 -178.91497559 499.54555664 -179.2253418 498.69970703 C-181.32108545 492.9472672 -183.35399112 487.17560092 -185.3125 481.375 C-185.55460205 480.66625732 -185.7967041 479.95751465 -186.04614258 479.22729492 C-187.71671633 474.209681 -188.940312 469.1785612 -190 464 C-190.20036865 463.02949707 -190.4007373 462.05899414 -190.60717773 461.05908203 C-191.26735861 457.83269413 -191.91627444 454.60421021 -192.5625 451.375 C-192.78357422 450.281875 -193.00464844 449.18875 -193.23242188 448.0625 C-197.277546 427.87354215 -198.91539846 406.59007881 -198 386 C-197.95891113 385.04544922 -197.91782227 384.09089844 -197.87548828 383.10742188 C-196.74500095 359.54416515 -193.00481959 336.54026106 -186 314 C-185.66097656 312.89785156 -185.32195312 311.79570312 -184.97265625 310.66015625 C-183.01416746 304.54872737 -180.67615234 298.65025915 -178.15625 292.75 C-177.1820632 290.43301517 -176.2872055 288.11439791 -175.4375 285.75 C-170.24771663 271.64762349 -162.01086479 257.66022229 -154 245 C-153.12021484 243.60007812 -153.12021484 243.60007812 -152.22265625 242.171875 C-149.20921332 237.40643036 -146.15664348 232.67183235 -143 228 C-154.65315292 238.38574052 -163.80710949 251.91097592 -171.89208984 265.18261719 C-172.65688743 266.43716836 -173.42848564 267.68759016 -174.20556641 268.93457031 C-180.38295964 278.85985526 -185.45862536 289.00250024 -190.08984375 299.734375 C-191.1323589 302.13641396 -192.16239472 304.26270943 -193.54296875 306.49609375 C-195.7176714 310.23331734 -196.98613336 314.2291005 -198.375 318.3125 C-198.68026611 319.20259766 -198.98553223 320.09269531 -199.30004883 321.00976562 C-200.20743532 323.67073424 -201.10422404 326.33510476 -202 329 C-202.24572754 329.71720215 -202.49145508 330.4344043 -202.74462891 331.17333984 C-214.37834609 365.24053318 -217.32773725 403.73199591 -213.29394531 439.35742188 C-213.00904683 441.9186687 -212.76066121 444.48082104 -212.5234375 447.046875 C-211.8190406 454.40440941 -210.87947502 461.46842456 -208.71875 468.56640625 C-207.99620708 471.01284233 -207.47496165 473.43207732 -207 475.9375 C-205.0357542 486.55562357 -205.0357542 486.55562357 -201.4375 496.6875 C-199.69120677 500.71156702 -198.82729215 504.70781367 -198 509 C-199.65 509 -201.3 509 -203 509 C-214.53543776 487.53126861 -214.53543776 487.53126861 -218 477 C-218.45450858 475.66755177 -218.91032371 474.33554877 -219.3671875 473.00390625 C-228.07848595 447.45153181 -232.76580423 423.17591926 -232.5625 396.125 C-232.55990173 394.97466278 -232.55730347 393.82432556 -232.55462646 392.63912964 C-232.4831612 371.92659319 -231.70920566 350.79318572 -225 331 C-224.60268321 329.04607221 -224.22948521 327.08715052 -223.875 325.125 C-220.10435945 307.16235053 -213.02802354 289.89716297 -206 273 C-205.34 273 -204.68 273 -204 273 C-203.95875 272.21625 -203.9175 271.4325 -203.875 270.625 C-202.84684868 266.36551595 -200.99450964 263.4574258 -198.67578125 259.77734375 C-196.93772343 256.89678639 -195.46237576 253.96643133 -194 250.9375 C-191.8105613 246.47900665 -189.41911255 242.38472223 -186.58203125 238.3125 C-184.08444963 234.66171402 -181.81615311 230.86706221 -179.515625 227.08984375 C-179.01546875 226.40019531 -178.5153125 225.71054687 -178 225 C-177.34 225 -176.68 225 -176 225 C-175.92136719 224.45859375 -175.84273438 223.9171875 -175.76171875 223.359375 C-174.71636244 220.12145085 -172.89058116 217.93723393 -170.8125 215.25 C-169.99074408 214.18109822 -169.16912976 213.11208758 -168.34765625 212.04296875 C-167.57292969 211.03878906 -166.79820312 210.03460938 -166 209 C-164.91429622 207.52257236 -163.83056403 206.04369091 -162.75 204.5625 C-160.40983481 201.42927882 -157.80633185 198.72837819 -155 196 C-154.34 195.01 -153.68 194.02 -153 193 C-153.99 193 -154.98 193 -156 193 C-156 193.66 -156 194.32 -156 195 C-158.1171875 196.7265625 -158.1171875 196.7265625 -160.875 198.625 C-161.77992188 199.25664062 -162.68484375 199.88828125 -163.6171875 200.5390625 C-166 202 -166 202 -168 202 C-168.33 202.99 -168.66 203.98 -169 205 C-170.86328125 206.65625 -170.86328125 206.65625 -173.3125 208.5 C-180.49665143 214.08423265 -187.51266772 220.12576728 -193.60546875 226.89453125 C-194.39566406 227.58933594 -195.18585938 228.28414062 -196 229 C-198.3125 228.8125 -198.3125 228.8125 -200 228 C-191.24620033 213.23525789 -181.2291509 199.87530754 -170.32958984 186.65283203 C-169.25250487 185.3138924 -168.23540253 183.926851 -167.23828125 182.52734375 C-166.62533203 181.77130859 -166.62533203 181.77130859 -166 181 C-165.34 181 -164.68 181 -164 181 C-163.34 179.68 -162.68 178.36 -162 177 C-161.34 177 -160.68 177 -160 177 C-159.34 175.68 -158.68 174.36 -158 173 C-157.34 173 -156.68 173 -156 173 C-155.34 171.68 -154.68 170.36 -154 169 C-153.34 169 -152.68 169 -152 169 C-152 168.34 -152 167.68 -152 167 C-150.49576101 165.60126876 -148.91734851 164.28204731 -147.3125 163 C-146.31089844 162.19949219 -145.30929687 161.39898437 -144.27734375 160.57421875 C-143.18561339 159.71523307 -142.09315083 158.85717725 -141 158 C-140.18233154 157.35538818 -140.18233154 157.35538818 -139.34814453 156.69775391 C-118.37740478 140.20176086 -95.36485136 127.33733909 -70 119 C-68.98679687 118.65453125 -67.97359375 118.3090625 -66.9296875 117.953125 C-60.77296345 115.8608678 -54.57405537 113.89988566 -48.375 111.9375 C-47.54911377 111.67598145 -46.72322754 111.41446289 -45.87231445 111.14501953 C-41.700235 109.83016713 -37.52205524 108.565647 -33.3125 107.375 C-27.32367883 105.58776017 -20.76687393 103.24086807 -17 98 C-16.68740419 95.90938769 -16.68740419 95.90938769 -18 94 C-30.30493682 84.52336209 -49.77155239 85.90628589 -64.4296875 87.76171875 C-75.89728958 89.35916282 -86.99059539 91.37550465 -98 95 C-100.60423173 95.73497992 -103.21001108 96.46414521 -105.81640625 97.19140625 C-108.11200278 97.96398308 -108.11200278 97.96398308 -110.43359375 99.46875 C-113.08967477 101.05350458 -115.57125882 101.95731646 -118.5 102.9375 C-133.36111984 108.52730757 -147.29516173 117.57114751 -160 127 C-160.54591797 127.40460449 -161.09183594 127.80920898 -161.65429688 128.22607422 C-168.14165793 133.05815501 -174.38860813 138.05869335 -180.29296875 143.6015625 C-182 145 -182 145 -184 145 C-184.66 146.32 -185.32 147.64 -186 149 C-186.66 149 -187.32 149 -188 149 C-188.66 150.32 -189.32 151.64 -190 153 C-190.66 153 -191.32 153 -192 153 C-192.66 154.32 -193.32 155.64 -194 157 C-194.66 157 -195.32 157 -196 157 C-196.24878906 157.56976563 -196.49757813 158.13953125 -196.75390625 158.7265625 C-198.1896178 161.34594845 -199.88707456 163.20221644 -201.9375 165.375 C-217.20338169 182.06438835 -229.37967503 201.08001224 -240 221 C-240.60070312 222.09828125 -241.20140625 223.1965625 -241.8203125 224.328125 C-244.80747659 229.80250939 -247.68119059 235.20297647 -250 241 C-250.38929688 241.91394531 -250.77859375 242.82789063 -251.1796875 243.76953125 C-253.73521795 249.78032032 -256.04622462 255.77057125 -258 262 C-258.57041016 263.74023438 -258.57041016 263.74023438 -259.15234375 265.515625 C-272.31757641 305.99630376 -277.73103878 355.53962592 -265 397 C-264.75 400.3125 -264.75 400.3125 -265 403 C-267 405 -267 405 -269.375 405.5 C-272 405 -272 405 -273.90625 402.67578125 C-276.81495972 398.040753 -278.3874988 392.84384863 -280.125 387.6875 C-280.64513672 386.19573242 -280.64513672 386.19573242 -281.17578125 384.67382812 C-282.95115312 379.49395962 -284.46856852 374.37711683 -285.56616211 369.01269531 C-285.95529314 367.20740764 -286.46828307 365.42987443 -286.99609375 363.66015625 C-291.50464315 347.22237109 -292.72173018 329.9708913 -293 313 C-293.02835937 311.77667969 -293.05671875 310.55335938 -293.0859375 309.29296875 C-293.12669029 305.85750887 -293.0763302 302.43485911 -293 299 C-292.99274902 298.25476074 -292.98549805 297.50952148 -292.97802734 296.74169922 C-292.67632159 270.93307277 -289.44391931 239.01418031 -277 216 C-276.50678885 214.5950955 -276.0448403 213.17854752 -275.625 211.75 C-274.23028391 207.38233645 -272.29030757 203.46183211 -270.18359375 199.3984375 C-269.14921369 197.30236701 -268.3231619 195.26796941 -267.5625 193.0625 C-265.6597212 187.7304193 -262.7769808 182.91525601 -260 178 C-259.04074581 176.27134401 -258.08233047 174.54222209 -257.125 172.8125 C-256.4171122 171.54141844 -255.70896103 170.27048327 -255 169 C-254.34 169 -253.68 169 -253 169 C-252.74476563 168.11699219 -252.48953125 167.23398437 -252.2265625 166.32421875 C-250.98030391 162.94661984 -249.54343814 160.6677542 -247.375 157.8125 C-246.66730469 156.86890625 -245.95960938 155.9253125 -245.23046875 154.953125 C-244.49441406 153.97859375 -243.75835937 153.0040625 -243 152 C-241.55867445 150.02361754 -240.12103474 148.04454064 -238.6875 146.0625 C-237.46090355 144.37313086 -236.2319853 142.68544331 -235 141 C-234.47019531 140.23558594 -233.94039062 139.47117187 -233.39453125 138.68359375 C-232.93433594 138.12800781 -232.47414062 137.57242188 -232 137 C-231.34 137 -230.68 137 -230 137 C-229.73574219 136.40703125 -229.47148437 135.8140625 -229.19921875 135.203125 C-227.95629575 132.91970946 -226.69598354 131.52573277 -224.8125 129.75 C-222.28665251 127.30730798 -219.94827597 124.81435909 -217.6875 122.125 C-212.73042045 116.3828626 -207.04821389 110.0785302 -200 107 C-200 106.34 -200 105.68 -200 105 C-198.58227539 103.69067383 -198.58227539 103.69067383 -196.59765625 102.20703125 C-195.87642578 101.66240234 -195.15519531 101.11777344 -194.41210938 100.55664062 C-193.63673828 99.98107422 -192.86136719 99.40550781 -192.0625 98.8125 C-190.49056887 97.63193178 -188.91895114 96.45094614 -187.34765625 95.26953125 C-186.5911377 94.70314941 -185.83461914 94.13676758 -185.05517578 93.55322266 C-182.66597742 91.74755861 -180.33067135 89.88038064 -178 88 C-174.54585256 85.29033871 -170.93935479 83.15624182 -167.04296875 81.140625 C-164.95893852 80.04117611 -164.95893852 80.04117611 -163.0859375 78.53515625 C-160.65264507 76.74436239 -158.15723989 75.50210131 -155.4375 74.1875 C-151.41652401 72.22320218 -147.5041526 70.16729438 -143.625 67.9375 C-138.42219198 65.062855 -133.07500394 63.12214381 -127.45703125 61.2109375 C-124.3187779 60.11166232 -121.29856552 58.88649665 -118.25 57.5625 C-113.13389475 55.39349172 -107.94912595 53.52828419 -102.6875 51.75 C-101.93436523 51.49162354 -101.18123047 51.23324707 -100.40527344 50.96704102 C-95.92836008 49.48018654 -91.69021212 48.52044626 -87 48 C-87 47.34 -87 46.68 -87 46 C-120.07169826 44.90880183 -154.15037643 50.63191104 -181.125 71.65625 C-183.52814039 73.37850061 -185.11037253 73.24080229 -188 73 C-187.75082247 69.63610332 -186.84158258 68.85958456 -184.25 66.5625 C-183.76015625 66.19253906 -183.2703125 65.82257813 -182.765625 65.44140625 C-180.85059519 63.93195985 -180.85059519 63.93195985 -178.74609375 61.703125 C-175.60402389 58.61021982 -172.28045212 55.90170704 -168.8125 53.1875 C-167.86987305 52.43436523 -167.86987305 52.43436523 -166.90820312 51.66601562 C-162.24463223 48 -162.24463223 48 -160 48 C-160 47.34 -160 46.68 -160 46 C-158.68 45.67 -157.36 45.34 -156 45 C-156 44.34 -156 43.68 -156 43 C-155.02417969 42.44570312 -154.04835938 41.89140625 -153.04296875 41.3203125 C-151.75777981 40.58859909 -150.47262536 39.85682508 -149.1875 39.125 C-148.54490234 38.76019531 -147.90230469 38.39539063 -147.24023438 38.01953125 C-144.43231202 36.41916099 -141.69035702 34.79357134 -139 33 C-138.01 33 -137.02 33 -136 33 C-136 32.34 -136 31.68 -136 31 C-126.14107096 25.95530124 -116.27211806 21.15895512 -106 17 C-105.14921875 16.65453125 -104.2984375 16.3090625 -103.421875 15.953125 C-81.0759504 7.38016022 -56.2885921 1.52366876 -32.375 0.4375 C-31.4562207 0.3957666 -30.53744141 0.3540332 -29.59082031 0.31103516 C-19.72151629 -0.10116728 -9.87549569 -0.16206295 0 0 Z M-10.1875 18.6875 C-12.17464683 20.86184733 -12.17464683 20.86184733 -12.5 23.5625 C-12.20367625 26.11300202 -12.20367625 26.11300202 -10.25 27.8125 C-7.83443376 29.31117241 -7.83443376 29.31117241 -4 29 C-2.05893971 27.38442803 -2.05893971 27.38442803 -1 25 C-1.14268998 22.07485537 -1.60487403 20.52084787 -3.375 18.1875 C-6.13322181 16.17187637 -7.5948107 16.6874254 -10.1875 18.6875 Z M9.9375 60.1875 C6.80454165 61.50132124 5.70653282 63.07451516 4 66 C3.02532791 70.85547656 3.56729898 74.14951869 5.8125 78.5625 C7.80064128 80.66045141 8.87231835 80.98332248 11.78125 81.36328125 C14.54775529 81.3739765 17.24670002 81.26038213 20 81 C20 80.34 20 79.68 20 79 C20.64195312 78.75894531 21.28390625 78.51789063 21.9453125 78.26953125 C24.16771645 77.19682123 24.16771645 77.19682123 24.6796875 75.01171875 C25.31856077 68.71196724 25.31856077 68.71196724 23 63 C18.39231313 60.03060179 15.21698423 59.70754689 9.9375 60.1875 Z M62 74 C61.34 74.66 60.68 75.32 60 76 C60.32041397 78.60280568 60.32041397 78.60280568 61 81 C62.65 81 64.3 81 66 81 C66.77242269 79.16299211 66.77242269 79.16299211 67 77 C65.77045984 75.18700508 65.77045984 75.18700508 64 74 C63.34 74 62.68 74 62 74 Z M128 107 C128 108.32 128 109.64 128 111 C129.32 110.67 130.64 110.34 132 110 C132 109.34 132 108.68 132 108 C130.68 107.67 129.36 107.34 128 107 Z M86 112 C86.3121764 114.64632287 86.3121764 114.64632287 87 117 C89.29294488 117.85974801 89.29294488 117.85974801 92 118 C94.33454661 116.16641665 94.33454661 116.16641665 96 114 C94.8624438 111.40858714 94.8624438 111.40858714 93 109 C88.90330228 108.20064435 88.38393838 108.42409243 86 112 Z M-1 133 C-1.99 133.66 -2.98 134.32 -4 135 C-4.25030977 137.58380177 -4.25030977 137.58380177 -4 140 C-2.16299211 140.77242269 -2.16299211 140.77242269 0 141 C1.77190909 139.64555699 1.77190909 139.64555699 3 138 C1.6910428 134.87802522 1.6910428 134.87802522 -1 133 Z M-79 158 C-80.29633621 159.06645115 -80.29633621 159.06645115 -80.0625 161.5625 C-80.041875 162.366875 -80.02125 163.17125 -80 164 C-77.525 164.495 -77.525 164.495 -75 165 C-74.34 163.68 -73.68 162.36 -73 161 C-73.66 160.01 -74.32 159.02 -75 158 C-76.32 158 -77.64 158 -79 158 Z M-33 171 C-33.32613281 171.90363281 -33.65226562 172.80726563 -33.98828125 173.73828125 C-34.42527344 174.91777344 -34.86226563 176.09726562 -35.3125 177.3125 C-35.74175781 178.48425781 -36.17101562 179.65601563 -36.61328125 180.86328125 C-37.86511531 183.69489462 -38.77593982 184.98464928 -41 187 C-41 187.66 -41 188.32 -41 189 C-41.5671875 189.2784375 -42.134375 189.556875 -42.71875 189.84375 C-45.01419056 191.00719248 -47.25634472 192.23986484 -49.5 193.5 C-52.30179446 195.07361059 -55.11519813 196.58382453 -58 198 C-56.60587891 198.60134766 -56.60587891 198.60134766 -55.18359375 199.21484375 C-45.68420282 203.50580191 -39.63019719 208.02046616 -35.125 217.75 C-34.16732387 220.51661992 -33.43790301 223.10984011 -33 226 C-32.67 226 -32.34 226 -32 226 C-31.89042969 225.33613281 -31.78085937 224.67226563 -31.66796875 223.98828125 C-30.77839831 219.03416944 -29.89625691 215.21273732 -27 211 C-27 210.34 -27 209.68 -27 209 C-25.515 208.505 -25.515 208.505 -24 208 C-23.34 207.2575 -22.68 206.515 -22 205.75 C-18.2420213 201.75932912 -12.97617175 200.04798662 -8 198 C-10.94105366 196.03929756 -13.87212648 194.59012265 -17.0625 193.09765625 C-19 192 -19 192 -20.625 190.37109375 C-21.91240672 188.76463326 -21.91240672 188.76463326 -24 189 C-25.33333333 186.33333333 -26.66666667 183.66666667 -28 181 C-28.66 181 -29.32 181 -30 181 C-30.66 177.7 -31.32 174.4 -32 171 C-32.33 171 -32.66 171 -33 171 Z M29 181 C28.67 181.99 28.34 182.98 28 184 C28.66 184.66 29.32 185.32 30 186 C32.10820797 185.6814823 32.10820797 185.6814823 34 185 C33.67 183.68 33.34 182.36 33 181 C31.68 181 30.36 181 29 181 Z M220 183 C218.515 184.98 218.515 184.98 217 187 C218.22809091 188.64555699 218.22809091 188.64555699 220 190 C222.16299211 189.77242269 222.16299211 189.77242269 224 189 C223.67 187.35 223.34 185.7 223 184 C222.01 183.67 221.02 183.34 220 183 Z M-112 245 C-114.73284581 248.51365889 -114.403145 252.74944947 -114 257 C-113.10718667 260.30340931 -112.15459249 260.89810949 -109.25 262.8125 C-104.8368181 264.42500877 -102.17055414 263.68217416 -97.8125 262.3125 C-95.00968221 260.28287333 -94.15854394 258.23172783 -93 255 C-93 250.4642798 -93.48593199 248.60633663 -96.4375 245.125 C-101.65415988 240.79898937 -106.57056851 240.77710884 -112 245 Z M-53 265 C-53.33 266.32 -53.66 267.64 -54 269 C-52.35 268.67 -50.7 268.34 -49 268 C-49.33 267.01 -49.66 266.02 -50 265 C-50.99 265 -51.98 265 -53 265 Z M-144.875 309.125 C-146.52854531 311.88090884 -146.39365568 313.85075452 -146 317 C-145.08333333 319.08333333 -145.08333333 319.08333333 -143 320 C-139.42243314 320.00082535 -139.42243314 320.00082535 -136 319 C-133.66703749 316.17282787 -133.66703749 316.17282787 -134.25 312.9375 C-134.7593244 309.900541 -134.7593244 309.900541 -137 308 C-140.10347254 307.66984335 -142.15781176 307.49468706 -144.875 309.125 Z M-73 319 C-73.24677006 322.10293293 -73.24677006 322.10293293 -72 325 C-69.92836371 327.24300635 -69.92836371 327.24300635 -67 328 C-63.66666667 327.16666667 -63.66666667 327.16666667 -61 325 C-59.66666667 322.66666667 -59.66666667 322.66666667 -60 320 C-61.49602502 317.08829743 -61.49602502 317.08829743 -64 315 C-68.36048194 314.01889156 -70.52422744 315.38156319 -73 319 Z M-109 372 C-109.67958603 374.39719432 -109.67958603 374.39719432 -110 377 C-109.34 377.66 -108.68 378.32 -108 379 C-105.89179203 378.6814823 -105.89179203 378.6814823 -104 378 C-103.3185177 376.10820797 -103.3185177 376.10820797 -103 374 C-103.66 373.34 -104.32 372.68 -105 372 C-106.32 372 -107.64 372 -109 372 Z M-52 383 C-52 384.32 -52 385.64 -52 387 C-50.68 387 -49.36 387 -48 387 C-48 385.68 -48 384.36 -48 383 C-49.32 383 -50.64 383 -52 383 Z M-164 400 C-165.29633621 401.06645115 -165.29633621 401.06645115 -165.0625 403.5625 C-165.041875 404.366875 -165.02125 405.17125 -165 406 C-163.34385343 406.38218767 -161.67542976 406.71395102 -160 407 C-158.70366379 405.93354885 -158.70366379 405.93354885 -158.9375 403.4375 C-158.958125 402.633125 -158.97875 401.82875 -159 401 C-160.65614657 400.61781233 -162.32457024 400.28604898 -164 400 Z M-41 431 C-42.485 432.98 -42.485 432.98 -44 435 C-42.8354799 436.66621425 -42.8354799 436.66621425 -41 438 C-38.34533951 437.76956136 -38.34533951 437.76956136 -36 437 C-36 435.35 -36 433.7 -36 432 C-37.65 431.67 -39.3 431.34 -41 431 Z M-37 484 C-36 486 -36 486 -36 486 Z M19.625 499.625 C17.48676569 502.75011169 17.3170331 504.28162465 18 508 C20.0424351 511.04273417 20.0424351 511.04273417 23 513 C25.97926976 513 27.65676181 512.16698074 30.3125 510.875 C32.32677814 508.98572078 32.32677814 508.98572078 32.5 505.5625 C32.26471984 502.01535917 32.26471984 502.01535917 30.375 499.5625 C26.45815056 496.98562537 23.49946918 496.97404741 19.625 499.625 Z M-53 505 C-53.33 506.32 -53.66 507.64 -54 509 C-52.68 509 -51.36 509 -50 509 C-50.33 507.68 -50.66 506.36 -51 505 C-51.66 505 -52.32 505 -53 505 Z M133 535 C132.34 535.66 131.68 536.32 131 537 C131.3185177 539.10820797 131.3185177 539.10820797 132 541 C135.04913228 542.01111093 135.04913228 542.01111093 138 541 C137.67 539.35 137.34 537.7 137 536 C135.10820797 535.3185177 135.10820797 535.3185177 133 535 Z M89.125 550.1875 C87.75718135 552.00817822 87.75718135 552.00817822 88.125 554.5625 C88.84389168 557.3261611 88.84389168 557.3261611 92 559 C94.64632287 558.6878236 94.64632287 558.6878236 97 558 C97.68493373 555.14221967 97.68493373 555.14221967 98 552 C97.34 551.01 96.68 550.02 96 549 C93.1100296 548.55538917 91.61186159 548.61248766 89.125 550.1875 Z M198.1875 571.1875 C196.74400443 572.98937128 196.74400443 572.98937128 197.1875 575.5 C197.94271259 578.20696281 197.94271259 578.20696281 200 581 C202.67857172 580.63803085 204.60980914 580.26012724 206.875 578.75 C208.24811702 576.98664349 208.24811702 576.98664349 207.875 574.4375 C207.15610832 571.6738389 207.15610832 571.6738389 204 570 C200.19649626 569.63464916 200.19649626 569.63464916 198.1875 571.1875 Z " fill="#ffffff" transform="translate(412,163)"/>
<path d="M0 0 C1.11572891 -0.00627663 1.11572891 -0.00627663 2.2539978 -0.01268005 C4.69058368 -0.01900586 7.12602888 0.00001046 9.5625 0.0234375 C10.39517395 0.02775787 11.2278479 0.03207825 12.08575439 0.03652954 C51.42879952 0.27602866 89.54438864 8.26627907 125.43359375 24.4453125 C126.83648206 25.07339461 128.24533033 25.68835429 129.66015625 26.2890625 C139.08786894 30.32706648 148.13909381 35.18216288 156.5625 41.0390625 C158.01473862 42.02613094 159.50368914 42.95984856 161.01171875 43.859375 C171.00901034 49.89143149 179.92314664 57.66107157 188.90966797 65.06884766 C190.2486076 66.14593263 191.635649 67.16303497 193.03515625 68.16015625 C193.79119141 68.77310547 193.79119141 68.77310547 194.5625 69.3984375 C194.5625 70.0584375 194.5625 70.7184375 194.5625 71.3984375 C195.8825 72.0584375 197.2025 72.7184375 198.5625 73.3984375 C198.5625 74.0584375 198.5625 74.7184375 198.5625 75.3984375 C199.8825 76.0584375 201.2025 76.7184375 202.5625 77.3984375 C202.5625 78.0584375 202.5625 78.7184375 202.5625 79.3984375 C203.8825 80.0584375 205.2025 80.7184375 206.5625 81.3984375 C206.5625 82.0584375 206.5625 82.7184375 206.5625 83.3984375 C207.2225 83.3984375 207.8825 83.3984375 208.5625 83.3984375 C210.33984375 85.3125 210.33984375 85.3125 212.5 88.0234375 C213.29921875 89.02246094 214.0984375 90.02148438 214.921875 91.05078125 C215.80258011 92.16627463 216.68276933 93.28217547 217.5625 94.3984375 C218.50515882 95.58727884 219.4478681 96.77608018 220.390625 97.96484375 C222.73101658 100.92287193 225.05450889 103.89363749 227.37011719 106.87109375 C228.36621712 108.14701537 229.37320443 109.41442761 230.3828125 110.6796875 C233.7623229 114.9969678 236.37272386 119.51658223 238.875 124.39453125 C240.28869717 126.91104312 241.78553692 129.21611311 243.41796875 131.58984375 C246.71368216 136.48463365 249.34602694 141.57362415 251.875 146.8984375 C252.34429932 147.88529541 252.81359863 148.87215332 253.29711914 149.88891602 C277.98139225 202.96489909 282.02858087 261.8459221 262.5625 317.2734375 C255.71634585 335.23774598 247.95852427 353.48569685 236.94140625 369.3359375 C234.97911909 372.27102991 233.31146404 375.34536439 231.640625 378.453125 C230.69940131 380.15141992 229.63954834 381.78286498 228.5625 383.3984375 C227.9025 383.3984375 227.2425 383.3984375 226.5625 383.3984375 C226.47613281 383.95015625 226.38976562 384.501875 226.30078125 385.0703125 C225.32995018 388.1317692 223.71842762 390.10898853 221.75 392.6484375 C220.94820312 393.69 220.14640625 394.7315625 219.3203125 395.8046875 C218.88106445 396.37316406 218.44181641 396.94164062 217.98925781 397.52734375 C216.42324868 399.58105593 214.89323973 401.65862729 213.3671875 403.7421875 C212.56051636 404.83805176 212.56051636 404.83805176 211.73754883 405.95605469 C210.67058318 407.40667566 209.60784535 408.86041672 208.54956055 410.31738281 C207.26838849 412.04754504 205.92104324 413.72834066 204.5625 415.3984375 C203.9025 415.3984375 203.2425 415.3984375 202.5625 415.3984375 C201.9025 416.7184375 201.2425 418.0384375 200.5625 419.3984375 C199.9025 419.3984375 199.2425 419.3984375 198.5625 419.3984375 C198.500625 419.9553125 198.43875 420.5121875 198.375 421.0859375 C197.22876128 424.34830923 195.06859803 426.08511624 192.5625 428.3984375 C197.89359014 424.96429968 202.7837792 421.10770873 207.703125 417.11328125 C212.34918295 413.3984375 212.34918295 413.3984375 214.5625 413.3984375 C214.5625 412.7384375 214.5625 412.0784375 214.5625 411.3984375 C216.20703125 409.70703125 216.20703125 409.70703125 218.375 407.8359375 C219.08269531 407.21589844 219.79039062 406.59585937 220.51953125 405.95703125 C222.5625 404.3984375 222.5625 404.3984375 225.5625 403.3984375 C226.23385322 402.06745776 226.8995839 400.73363953 227.5625 399.3984375 C229.08233667 397.81469545 230.65086279 396.27706729 232.25 394.7734375 C236.55669211 390.58516384 239.95431863 386.2862209 243.1875 381.234375 C243.64125 380.62851562 244.095 380.02265625 244.5625 379.3984375 C245.2225 379.3984375 245.8825 379.3984375 246.5625 379.3984375 C246.8925 378.0784375 247.2225 376.7584375 247.5625 375.3984375 C248.2225 375.3984375 248.8825 375.3984375 249.5625 375.3984375 C249.871875 374.4084375 249.871875 374.4084375 250.1875 373.3984375 C251.73440332 370.02337571 253.71277214 367.44144892 256.02734375 364.55859375 C257.87369253 361.96055081 259.16974574 359.26647961 260.5625 356.3984375 C261.25214396 355.08944572 261.9478464 353.78363427 262.6484375 352.48046875 C266.51165175 345.27824974 270.29402294 338.09982697 273.578125 330.609375 C274.37583259 328.81769843 275.2682382 327.06839243 276.1875 325.3359375 C278.66122937 320.05115202 280.01437175 314.38540242 281.5625 308.7734375 C282.5625 305.3984375 282.5625 305.3984375 284.0234375 301.765625 C285.71352992 297.29807208 286.49648775 292.85988468 287.1875 288.1484375 C287.42832406 286.58051914 287.67046608 285.01280253 287.9140625 283.4453125 C288.01541504 282.76307617 288.11676758 282.08083984 288.22119141 281.37792969 C288.5625 279.3984375 288.5625 279.3984375 289.07574463 277.55908203 C289.59541132 275.25234839 289.68949705 273.21169896 289.69189453 270.84863281 C289.69504669 269.95380188 289.69819885 269.05897095 289.70144653 268.13702393 C289.6994223 267.17657166 289.69739807 266.21611938 289.6953125 265.2265625 C289.69626923 264.23017761 289.69722595 263.23379272 289.69821167 262.20721436 C289.69889186 260.09907976 289.69704879 257.99094306 289.69287109 255.8828125 C289.68754316 252.67443053 289.69280988 249.46618999 289.69921875 246.2578125 C289.6985575 244.20572886 289.69727537 242.15364531 289.6953125 240.1015625 C289.69834885 238.67302948 289.69834885 238.67302948 289.70144653 237.21563721 C289.68281258 231.85131964 289.3460391 226.70658423 288.5625 221.3984375 C289.5525 221.3984375 290.5425 221.3984375 291.5625 221.3984375 C306.02630421 241.06921122 302.73464754 276.76516533 300.5625 299.3984375 C312.28375054 264.47487545 315.77723303 219.64110456 303.23950195 184.38256836 C302.57128985 182.42419846 302.04559405 180.47213711 301.5625 178.4609375 C298.7362157 166.92969757 294.37095424 156.65721151 288.859375 146.15234375 C287.37299412 142.9960229 287.24164866 140.84758939 287.5625 137.3984375 C288.5625 136.3984375 288.5625 136.3984375 291.125 136.3359375 C291.929375 136.3565625 292.73375 136.3771875 293.5625 136.3984375 C293.8925 137.3884375 294.2225 138.3784375 294.5625 139.3984375 C295.14257812 139.65496094 295.72265625 139.91148437 296.3203125 140.17578125 C299.64015916 141.98608091 301.35412852 144.90503286 303.4375 147.9609375 C304.09830566 148.91093628 304.09830566 148.91093628 304.77246094 149.88012695 C306.04410337 151.714011 307.30368701 153.55573619 308.5625 155.3984375 C309.14773438 156.23632812 309.73296875 157.07421875 310.3359375 157.9375 C315.5249133 165.48759707 319.93463252 173.51436109 323.51171875 181.94921875 C324.2685031 183.71317334 325.06826412 185.45891066 325.89453125 187.19140625 C337.29821052 211.89436319 342.21236035 239.925858 343.125 266.9609375 C343.16818359 268.16041016 343.21136719 269.35988281 343.25585938 270.59570312 C343.36106802 273.52985543 343.46320883 276.46408 343.5625 279.3984375 C355.22440512 256.99786142 352.89546023 224.97554243 350.75 200.7734375 C350.68006836 199.95174072 350.61013672 199.13004395 350.53808594 198.28344727 C350.0313018 193.40085465 348.95093456 189.03649296 347.2746582 184.42211914 C346.58075878 182.45032197 346.04745943 180.49305823 345.5625 178.4609375 C342.6421273 166.54581689 337.94517465 155.9201376 332.328125 145.0546875 C331.96098389 144.33941895 331.59384277 143.62415039 331.21557617 142.88720703 C330.50406483 141.5081461 329.78326707 140.13382543 329.05200195 138.76513672 C327.20011144 135.18429516 326.01190787 132.45622609 326.5625 128.3984375 C327.5625 127.3984375 327.5625 127.3984375 330.625 126.7734375 C336.765005 127.74804147 338.99811803 131.54140714 342.5625 136.3984375 C345.62240254 140.75016424 348.5401584 145.18969008 351.42578125 149.65820312 C353.41659955 152.70600228 355.51096672 155.68409724 357.6015625 158.6640625 C358.5625 160.3984375 358.5625 160.3984375 358.5625 163.3984375 C359.2225 163.3984375 359.8825 163.3984375 360.5625 163.3984375 C365.7620353 174.19141228 370.22327263 185.23760977 374.5625 196.3984375 C374.97757813 197.46578125 375.39265625 198.533125 375.8203125 199.6328125 C395.25587365 251.35895162 395.00482745 311.49983653 376.5625 363.3984375 C376.2221875 364.38585937 375.881875 365.37328125 375.53125 366.390625 C373.23957063 372.9145187 370.50974944 379.14712877 367.5625 385.3984375 C366.78500536 387.08065943 366.00767689 388.76295818 365.23046875 390.4453125 C364.36265649 392.30500372 363.49415926 394.16437544 362.625 396.0234375 C362.21813965 396.90628418 361.8112793 397.78913086 361.39208984 398.69873047 C358.92898139 403.92465973 356.17392014 408.69590324 352.89428711 413.45166016 C351.38696399 415.65503221 350.07112621 417.91997891 348.8125 420.2734375 C347.47820291 422.75523009 346.13097412 425.04572632 344.5625 427.3984375 C343.9025 427.3984375 343.2425 427.3984375 342.5625 427.3984375 C342.459375 427.96433594 342.35625 428.53023437 342.25 429.11328125 C339.91635739 436.86999106 332.73384902 443.7322242 327.64453125 449.8359375 C325.8601741 452.03206938 324.2203702 454.25170853 322.625 456.5859375 C321.944375 457.5140625 321.26375 458.4421875 320.5625 459.3984375 C319.9025 459.3984375 319.2425 459.3984375 318.5625 459.3984375 C318.29953125 459.97722656 318.0365625 460.55601562 317.765625 461.15234375 C314.43908372 467.36260749 308.97825451 472.04228713 303.5625 476.3984375 C302.263125 477.72875 302.263125 477.72875 300.9375 479.0859375 C298.82999997 481.137977 297.25388336 482.30194798 294.5625 483.3984375 C294.5625 484.0584375 294.5625 484.7184375 294.5625 485.3984375 C293.20825195 486.67602539 293.20825195 486.67602539 291.30078125 488.12109375 C290.60033691 488.65524902 289.89989258 489.1894043 289.17822266 489.73974609 C288.41815918 490.30773926 287.6580957 490.87573242 286.875 491.4609375 C286.1020459 492.04439941 285.3290918 492.62786133 284.53271484 493.22900391 C263.53316783 508.99058834 241.72492137 522.1415788 217.5625 532.3984375 C216.45334229 532.87410156 216.45334229 532.87410156 215.32177734 533.359375 C188.92155347 544.56346004 159.32362326 552.16384432 130.5625 552.3984375 C129.43763184 552.41213379 128.31276367 552.42583008 127.15380859 552.43994141 C87.96387822 552.86155699 87.96387822 552.86155699 73.59375 549.14453125 C70.64666912 548.41915438 67.7535129 547.94732037 64.75 547.5234375 C57.75896644 546.41521554 51.16893013 544.2525325 44.46826172 542.02880859 C42.71332601 541.4483264 40.95259834 540.88543291 39.19140625 540.32421875 C33.11842658 538.36693995 27.34405156 536.08728409 21.5625 533.3984375 C20.1671128 532.79324116 18.77126589 532.18910383 17.375 531.5859375 C8.188402 527.4922605 -1.18295549 523.17661866 -9.4375 517.3984375 C-9.4375 516.7384375 -9.4375 516.0784375 -9.4375 515.3984375 C-9.98148438 515.3159375 -10.52546875 515.2334375 -11.0859375 515.1484375 C-22.22561689 511.59558294 -33.71207926 498.78554925 -40.96484375 490.125 C-42.41480259 488.36310953 -42.41480259 488.36310953 -44.12890625 486.796875 C-45.4375 485.3984375 -45.4375 485.3984375 -45.4375 483.3984375 C-46.4275 483.0684375 -47.4175 482.7384375 -48.4375 482.3984375 C-49.71875 480.9453125 -49.71875 480.9453125 -50.9375 479.1484375 C-51.54078125 478.27445313 -51.54078125 478.27445313 -52.15625 477.3828125 C-71.62844456 447.22465751 -79.86452779 412.84674355 -74.265625 377.09375 C-69.63325299 356.42288243 -60.26343259 339.45668528 -45.4375 324.3984375 C-44.71820313 323.65464844 -43.99890625 322.91085937 -43.2578125 322.14453125 C-30.54326364 309.88578697 -12.85818776 303.76143447 4.59375 303.29296875 C21.79658004 303.75013057 34.49355035 310.58839271 46.5625 322.3984375 C49.02004708 325.27816717 51.14144433 328.09422514 52.875 331.4609375 C53.39513672 332.43740234 53.39513672 332.43740234 53.92578125 333.43359375 C54.69387748 335.8038539 54.36412043 337.07632412 53.5625 339.3984375 C49.65163641 337.74384136 46.79767798 335.10542316 43.5625 332.3984375 C42.139375 331.563125 42.139375 331.563125 40.6875 330.7109375 C39.98625 330.2778125 39.285 329.8446875 38.5625 329.3984375 C38.5625 328.7384375 38.5625 328.0784375 38.5625 327.3984375 C37.655 327.2746875 36.7475 327.1509375 35.8125 327.0234375 C32.89880961 326.46311242 31.15841522 325.69639511 28.5625 324.3984375 C23.58680524 323.3322172 18.75010612 323.21516338 13.6875 323.2109375 C12.92308594 323.19869141 12.15867187 323.18644531 11.37109375 323.17382812 C-2.10119201 323.1395184 -13.31515986 328.75129112 -23.4375 337.3984375 C-25.72261009 339.91530318 -27.64245389 342.51600769 -29.4375 345.3984375 C-29.94023437 346.18347656 -30.44296875 346.96851563 -30.9609375 347.77734375 C-40.32557072 364.40080643 -39.13757465 386.81980237 -34.58984375 404.73828125 C-31.19718067 416.50958595 -25.91680502 425.74387644 -18.4375 435.3984375 C-17.95539063 436.048125 -17.47328125 436.6978125 -16.9765625 437.3671875 C-9.42441862 446.97106988 2.1516836 453.50309387 13.5625 457.3984375 C14.68205078 457.78515625 14.68205078 457.78515625 15.82421875 458.1796875 C24.98417791 461.41850108 24.98417791 461.41850108 34.5625 462.3984375 C33.5003125 461.87894531 32.438125 461.35945313 31.34375 460.82421875 C20.55798183 455.51616655 10.94640091 449.96335762 1.5625 442.3984375 C0.9540625 441.93824219 0.345625 441.47804688 -0.28125 441.00390625 C-7.91519032 434.98350332 -13.76314019 426.36189819 -17.4375 417.3984375 C-17.79714844 416.5528125 -18.15679687 415.7071875 -18.52734375 414.8359375 C-21.76265991 406.36194215 -24.39507407 394.27115972 -21.4375 385.3984375 C-20.4475 385.3984375 -19.4575 385.3984375 -18.4375 385.3984375 C-18.22996094 385.92050781 -18.02242188 386.44257813 -17.80859375 386.98046875 C-10.88602513 403.51932517 0.08790906 416.42735707 15.5625 425.3984375 C16.77679687 426.11966797 16.77679687 426.11966797 18.015625 426.85546875 C36.72609307 437.10905308 62.10326368 438.07231476 82.5625 433.3984375 C84.03203125 433.10646484 84.03203125 433.10646484 85.53125 432.80859375 C93.21213757 431.13582313 99.7039016 428.18895027 106.5625 424.3984375 C107.56410156 423.86089844 108.56570313 423.32335937 109.59765625 422.76953125 C116.92436092 418.69493807 123.23821692 413.88141686 129.5625 408.3984375 C130.36429688 407.71910156 131.16609375 407.03976562 131.9921875 406.33984375 C135.79557625 403.29104978 135.79557625 403.29104978 138.5625 399.3984375 C139.2225 399.3984375 139.8825 399.3984375 140.5625 399.3984375 C140.78679687 398.87765625 141.01109375 398.356875 141.2421875 397.8203125 C142.67783827 395.18687025 144.41388473 392.89643962 146.24389648 390.52612305 C152.56737576 382.30121537 157.29948133 373.835809 161.5625 364.3984375 C162.17544922 363.06039062 162.17544922 363.06039062 162.80078125 361.6953125 C174.8281498 333.64693179 173.81776174 298.04245922 164.5625 269.3984375 C164.06363281 267.820625 164.06363281 267.820625 163.5546875 266.2109375 C161.48557286 259.82437891 159.12880302 253.59954145 156.5625 247.3984375 C156.20542969 246.49867188 155.84835937 245.59890625 155.48046875 244.671875 C151.98553797 235.99883608 147.84903124 227.69997308 143.5625 219.3984375 C143.22814941 218.74907227 142.89379883 218.09970703 142.54931641 217.43066406 C137.93205546 208.50320695 132.94091618 199.89524851 127.5625 191.3984375 C126.97597656 190.45226562 126.38945313 189.50609375 125.78515625 188.53125 C122.26652466 182.89824795 118.53435563 177.4808227 114.5859375 172.140625 C113.26156185 170.34581476 111.9535013 168.53882205 110.6640625 166.71875 C106.11011816 160.30605287 101.20478886 154.29856007 96.078125 148.34375 C94.48690229 146.4807346 92.92293251 144.59378309 91.3984375 142.67578125 C89.52764343 140.26301692 89.52764343 140.26301692 86.9375 137.8359375 C84.5625 135.3984375 84.5625 135.3984375 83.5 133.2109375 C82.28908139 130.86982819 80.96072186 130.35772624 78.5625 129.3984375 C78.5625 128.7384375 78.5625 128.0784375 78.5625 127.3984375 C77.2425 126.7384375 75.9225 126.0784375 74.5625 125.3984375 C74.5625 124.7384375 74.5625 124.0784375 74.5625 123.3984375 C73.2425 122.7384375 71.9225 122.0784375 70.5625 121.3984375 C70.5625 120.7384375 70.5625 120.0784375 70.5625 119.3984375 C69.99015625 119.140625 69.4178125 118.8828125 68.828125 118.6171875 C66.35121005 117.28477808 64.4283834 115.74787632 62.3125 113.8984375 C61.60609375 113.29 60.8996875 112.6815625 60.171875 112.0546875 C58.5625 110.3984375 58.5625 110.3984375 58.5625 108.3984375 C58.01851562 108.15480469 57.47453125 107.91117187 56.9140625 107.66015625 C54.01655501 106.10551353 51.54743312 104.21142714 48.9375 102.2109375 C40.12332891 95.22778238 40.12332891 95.22778238 30.5625 89.3984375 C30.5625 88.7384375 30.5625 88.0784375 30.5625 87.3984375 C29.83804688 87.29144531 29.11359375 87.18445313 28.3671875 87.07421875 C25.3350546 86.3436352 23.31726148 85.24529179 20.6875 83.5859375 C19.81738281 83.04710937 18.94726562 82.50828125 18.05078125 81.953125 C16.81908203 81.18355469 16.81908203 81.18355469 15.5625 80.3984375 C11.03567707 77.66969394 6.46397378 75.39225734 1.5625 73.3984375 C0.78777344 73.07875 0.01304687 72.7590625 -0.78515625 72.4296875 C-5.61378421 70.45942818 -10.4531539 68.67028037 -15.4296875 67.109375 C-17.4375 66.3984375 -17.4375 66.3984375 -19.44921875 65.375 C-21.43856646 64.3979137 -23.21731223 63.87697419 -25.375 63.3984375 C-27.63575709 62.89504825 -29.6358809 62.31610943 -31.78125 61.42578125 C-43.38588672 56.93751734 -57.17230094 56.08005387 -69.4375 54.3984375 C-70.20497559 54.29112305 -70.97245117 54.18380859 -71.76318359 54.07324219 C-90.84998886 51.46201801 -108.88942464 52.24693681 -127.90307617 55.06298828 C-129.18029541 55.24716309 -130.45751465 55.43133789 -131.7734375 55.62109375 C-132.91345215 55.79390869 -134.0534668 55.96672363 -135.22802734 56.14477539 C-138.52580276 56.40541655 -141.22174183 56.14110614 -144.4375 55.3984375 C-145.4375 54.3984375 -145.4375 54.3984375 -145.75 51.0234375 C-145.4375 47.3984375 -145.4375 47.3984375 -143.953125 45.82421875 C-140.41663328 43.81984068 -136.80463012 42.93226227 -132.875 41.9609375 C-131.6075293 41.64116943 -131.6075293 41.64116943 -130.31445312 41.31494141 C-127.69197579 40.66224243 -125.06556083 40.02823759 -122.4375 39.3984375 C-121.67453613 39.21104004 -120.91157227 39.02364258 -120.12548828 38.83056641 C-81.07866453 29.35502024 -34.24545179 27.50393387 4.85961914 37.70043945 C8.05307837 38.52512556 11.2656275 39.19226139 14.5 39.8359375 C28.36731255 42.76823266 41.6923063 47.5043953 54.5625 53.3984375 C56.08291268 54.06606296 57.60374782 54.73272714 59.125 55.3984375 C65.84752674 58.40162814 72.2844804 61.75965444 78.6875 65.3984375 C79.27362061 65.73069336 79.85974121 66.06294922 80.46362305 66.40527344 C91.36696003 72.65859006 101.32630899 80.37352386 111.23461914 88.07275391 C113.63487948 89.93487758 116.0330181 91.71211624 118.5625 93.3984375 C118.5625 94.0584375 118.5625 94.7184375 118.5625 95.3984375 C119.8825 96.0584375 121.2025 96.7184375 122.5625 97.3984375 C122.5625 98.0584375 122.5625 98.7184375 122.5625 99.3984375 C123.119375 99.6253125 123.67625 99.8521875 124.25 100.0859375 C127.2094509 101.76562585 129.22376784 103.93977035 131.5625 106.3984375 C132.160625 106.9553125 132.75875 107.5121875 133.375 108.0859375 C134.5625 109.3984375 134.5625 109.3984375 134.5625 111.3984375 C135.41328125 111.72908203 135.41328125 111.72908203 136.28125 112.06640625 C139.27421604 113.81401142 140.9175867 115.9967407 143.0625 118.7109375 C143.8153125 119.65582031 144.568125 120.60070312 145.34375 121.57421875 C146.0759375 122.50621094 146.808125 123.43820313 147.5625 124.3984375 C148.3153125 125.29949219 149.068125 126.20054687 149.84375 127.12890625 C151.5625 129.3984375 151.5625 129.3984375 151.5625 131.3984375 C152.2225 131.3984375 152.8825 131.3984375 153.5625 131.3984375 C154.54099823 132.78183154 155.50903293 134.17437862 156.41015625 135.609375 C158.01359199 138.09877693 159.8134977 140.43212425 161.609375 142.78515625 C162.5625 144.3984375 162.5625 144.3984375 162.5625 147.3984375 C163.2225 147.3984375 163.8825 147.3984375 164.5625 147.3984375 C165.9296875 149.12109375 165.9296875 149.12109375 167.4375 151.4609375 C167.96730469 152.27949219 168.49710938 153.09804687 169.04296875 153.94140625 C170.33343017 156.02803923 171.56039748 158.12847852 172.75 160.2734375 C174.65934789 163.83956107 174.65934789 163.83956107 177.5625 166.3984375 C180.24304674 166.9366785 182.82690519 167.17420842 185.5625 167.3984375 C186.65607194 154.34847901 182.19006842 142.97646762 176.5625 131.3984375 C176.26859375 130.77195313 175.9746875 130.14546875 175.671875 129.5 C172.05299096 121.98621534 167.85560057 114.64206751 163.125 107.7734375 C161.5625 105.3984375 161.5625 105.3984375 161.5625 103.3984375 C160.9025 103.3984375 160.2425 103.3984375 159.5625 103.3984375 C159.459375 102.7590625 159.35625 102.1196875 159.25 101.4609375 C158.9096875 100.44 158.9096875 100.44 158.5625 99.3984375 C157.5725 99.0684375 156.5825 98.7384375 155.5625 98.3984375 C153.87890625 96.5078125 153.87890625 96.5078125 152.125 94.1484375 C151.20267578 92.92640625 151.20267578 92.92640625 150.26171875 91.6796875 C149.42060547 90.55046875 149.42060547 90.55046875 148.5625 89.3984375 C136.23881727 73.4501422 118.62209753 59.97423529 101.5625 49.3984375 C100.551875 48.75003906 99.54125 48.10164063 98.5 47.43359375 C82.92598396 37.62178777 66.07998205 29.61831536 48.5390625 24.02929688 C46.55075984 23.39469039 44.57237843 22.7343994 42.59375 22.0703125 C33.42579148 19.04475097 24.15979945 16.81854783 14.71166992 14.85571289 C12.43383683 14.37106205 10.16728673 13.84527866 7.8984375 13.3203125 C4.47096076 12.55449319 1.13510303 12.07263024 -2.375 11.8359375 C-7.23195351 11.50121075 -7.23195351 11.50121075 -9.4375 10.3984375 C-10.92682103 4.21202709 -10.92682103 4.21202709 -9.4140625 1.69677734 C-6.43340213 -0.26112184 -3.44980901 -0.02887311 0 0 Z M99.5625 107.3984375 C99.5625 108.7184375 99.5625 110.0384375 99.5625 111.3984375 C102.0375 111.8934375 102.0375 111.8934375 104.5625 112.3984375 C105.2225 111.0784375 105.8825 109.7584375 106.5625 108.3984375 C105.9025 107.7384375 105.2425 107.0784375 104.5625 106.3984375 C101.6370356 106.1748307 101.6370356 106.1748307 99.5625 107.3984375 Z M210.1875 181.1484375 C208.54240828 183.4262568 207.73150612 184.60983649 207.5625 187.3984375 C208.54350052 190.75018926 209.62697359 193.40647315 212.5625 195.3984375 C215.80057925 195.81180932 217.87369357 195.69629974 220.875 194.3984375 C223.44455063 191.35304416 223.86844101 188.32977953 223.5625 184.3984375 C222.26038858 181.27039195 222.26038858 181.27039195 219.5625 179.3984375 C215.52035967 178.7488078 213.51977996 178.69307332 210.1875 181.1484375 Z M242.5625 271.3984375 C242.5625 272.3884375 242.5625 273.3784375 242.5625 274.3984375 C243.8825 274.0684375 245.2025 273.7384375 246.5625 273.3984375 C246.2325 272.7384375 245.9025 272.0784375 245.5625 271.3984375 C244.5725 271.3984375 243.5825 271.3984375 242.5625 271.3984375 Z M212.5625 275.3984375 C212.50304199 276.30271484 212.44358398 277.20699219 212.38232422 278.13867188 C211.0759237 297.12598841 209.04054548 315.07872815 203.5625 333.3984375 C203.21058594 334.65011719 202.85867188 335.90179688 202.49609375 337.19140625 C200.75181132 343.18327183 198.6543789 349.04403193 196.5 354.8984375 C196.25443359 355.57003906 196.00886719 356.24164063 195.75585938 356.93359375 C194.34354844 360.68208657 192.69101362 364.01189482 190.5625 367.3984375 C189.89909234 368.99061589 189.23588593 370.58287878 188.57421875 372.17578125 C185.66148201 378.5748052 182.28519908 384.85828894 178.33984375 390.67578125 C176.3802886 393.13565606 176.3802886 393.13565606 176.5625 395.3984375 C175.9025 395.3984375 175.2425 395.3984375 174.5625 395.3984375 C173.50733457 397.03073762 172.51718229 398.70540487 171.5625 400.3984375 C167.95026584 405.87670731 164.33832377 410.86752777 159.5625 415.3984375 C158.59674429 416.55896747 157.63891078 417.72611868 156.6875 418.8984375 C154.55775357 421.44415003 152.4273923 423.3383095 149.6875 425.2109375 C148.65625 425.9328125 147.625 426.6546875 146.5625 427.3984375 C146.5625 428.0584375 146.5625 428.7184375 146.5625 429.3984375 C146.00046875 429.65367187 145.4384375 429.90890625 144.859375 430.171875 C142.26863518 431.55536531 140.11142155 433.19782333 137.8125 435.0234375 C137.01328125 435.65507813 136.2140625 436.28671875 135.390625 436.9375 C134.48570312 437.66066406 134.48570312 437.66066406 133.5625 438.3984375 C137.81716579 438.3984375 140.21247685 436.02528646 143.5 433.5859375 C144.12068359 433.13412109 144.74136719 432.68230469 145.38085938 432.21679688 C146.58049729 431.34166166 147.77647233 430.46147749 148.96826172 429.57568359 C150.29716096 428.59437392 151.64803226 427.64290704 153.00390625 426.69921875 C153.77541016 426.05533203 153.77541016 426.05533203 154.5625 425.3984375 C154.5625 424.7384375 154.5625 424.0784375 154.5625 423.3984375 C155.14386719 423.13289062 155.72523438 422.86734375 156.32421875 422.59375 C163.33725076 418.8485706 172.02051261 411.02439968 174.5625 403.3984375 C175.2225 403.3984375 175.8825 403.3984375 176.5625 403.3984375 C195.48247821 381.2597078 206.83570839 355.44252647 213.5625 327.3984375 C213.84867188 326.38716797 213.84867188 326.38716797 214.140625 325.35546875 C217.08258553 311.70804072 219.12121398 287.63315132 212.5625 275.3984375 Z M298.5625 303.3984375 C299.5625 305.3984375 299.5625 305.3984375 299.5625 305.3984375 Z M307.5625 376.3984375 C306.31572994 379.29550457 306.31572994 379.29550457 306.5625 382.3984375 C307.83574837 385.42771858 307.83574837 385.42771858 310.5625 387.3984375 C313.36506242 387.82015642 315.70365759 387.63667437 318.5625 387.3984375 C319.2225 386.0784375 319.8825 384.7584375 320.5625 383.3984375 C321.2225 383.3984375 321.8825 383.3984375 322.5625 383.3984375 C323.03433746 379.34063537 322.89579645 377.83648426 320.375 374.5234375 C317.7949185 372.26994176 317.7949185 372.26994176 315.0625 371.8359375 C311.62627684 372.60908771 309.98072437 373.84586733 307.5625 376.3984375 Z M243.5625 417.3984375 C242.9025 418.0584375 242.2425 418.7184375 241.5625 419.3984375 C241.8810177 421.50664547 241.8810177 421.50664547 242.5625 423.3984375 C244.2125 423.7284375 245.8625 424.0584375 247.5625 424.3984375 C248.24208603 422.00124318 248.24208603 422.00124318 248.5625 419.3984375 C247.9025 418.7384375 247.2425 418.0784375 246.5625 417.3984375 C245.5725 417.3984375 244.5825 417.3984375 243.5625 417.3984375 Z M-33.4375 461.3984375 C-33.4375 462.0584375 -33.4375 462.7184375 -33.4375 463.3984375 C-32.7775 463.0684375 -32.1175 462.7384375 -31.4375 462.3984375 C-32.0975 462.0684375 -32.7575 461.7384375 -33.4375 461.3984375 Z M246.5625 463.3984375 C246.2325 464.7184375 245.9025 466.0384375 245.5625 467.3984375 C246.8825 467.7284375 248.2025 468.0584375 249.5625 468.3984375 C249.8925 467.4084375 250.2225 466.4184375 250.5625 465.3984375 C250.2325 464.7384375 249.9025 464.0784375 249.5625 463.3984375 C248.5725 463.3984375 247.5825 463.3984375 246.5625 463.3984375 Z M-29.4375 465.3984375 C-29.4375 466.0584375 -29.4375 466.7184375 -29.4375 467.3984375 C-28.7775 467.0684375 -28.1175 466.7384375 -27.4375 466.3984375 C-28.0975 466.0684375 -28.7575 465.7384375 -29.4375 465.3984375 Z M-27.4375 467.3984375 C-25.99496343 470.76435616 -24.10485273 472.90890829 -21.4375 475.3984375 C-20.4475 475.0684375 -19.4575 474.7384375 -18.4375 474.3984375 C-19.406875 473.6146875 -20.37625 472.8309375 -21.375 472.0234375 C-23.27712346 470.48555045 -24.33379957 469.60583837 -25.4375 467.3984375 C-26.0975 467.3984375 -26.7575 467.3984375 -27.4375 467.3984375 Z M138.5625 467.3984375 C138.2325 469.0484375 137.9025 470.6984375 137.5625 472.3984375 C138.8825 472.0684375 140.2025 471.7384375 141.5625 471.3984375 C141.5625 470.4084375 141.5625 469.4184375 141.5625 468.3984375 C140.5725 468.0684375 139.5825 467.7384375 138.5625 467.3984375 Z M185.2265625 471.91015625 C182.97074288 475.27874596 182.50208657 476.89786906 183 481.0234375 C184.69382138 484.68209168 186.54102419 486.76433038 189.5625 489.3984375 C189.8925 489.7284375 190.2225 490.0584375 190.5625 490.3984375 C195.65843946 491.00133452 195.65843946 491.00133452 200.35546875 489.38671875 C203.73384369 486.6089438 206.29913706 484.05386169 207 479.6484375 C206.4149512 475.30236073 204.49184901 472.60009219 201.5625 469.3984375 C195.99461761 465.68651591 189.71357928 466.83274252 185.2265625 471.91015625 Z M-18.4375 475.3984375 C-17.4475 476.7184375 -16.4575 478.0384375 -15.4375 479.3984375 C-14.7775 479.0684375 -14.1175 478.7384375 -13.4375 478.3984375 C-14.81235532 476.85677108 -14.81235532 476.85677108 -16.4375 475.3984375 C-17.0975 475.3984375 -17.7575 475.3984375 -18.4375 475.3984375 Z M84.1875 508.0859375 C82.3053915 510.27705838 82.3053915 510.27705838 82.625 512.9609375 C83.87033996 516.27921045 83.87033996 516.27921045 86.5625 518.3984375 C90.14006686 518.39926285 90.14006686 518.39926285 93.5625 517.3984375 C95.88288095 514.57275204 95.88288095 514.57275204 95.375 511.3359375 C94.82495502 508.10102797 94.82495502 508.10102797 91.5625 506.3984375 C88.20758176 505.88229623 86.98250842 506.10001046 84.1875 508.0859375 Z M32.5625 507.3984375 C32.8925 509.0484375 33.2225 510.6984375 33.5625 512.3984375 C34.8825 512.0684375 36.2025 511.7384375 37.5625 511.3984375 C37.5625 510.0784375 37.5625 508.7584375 37.5625 507.3984375 C35.9125 507.3984375 34.2625 507.3984375 32.5625 507.3984375 Z " fill="#ffffff" transform="translate(505.4375,92.6015625)"/>
<path d="M0 0 C0.99 0.33 1.98 0.66 3 1 C4.25536614 15.31117397 -3.38654164 28.76137568 -10 41 C-10.86818359 42.61068359 -10.86818359 42.61068359 -11.75390625 44.25390625 C-17.06976971 53.71392313 -23.25409813 62.38640391 -31 70 C-32.55328487 71.69777649 -34.09524253 73.40599419 -35.625 75.125 C-41.29690602 81.4937955 -41.29690602 81.4937955 -43 83 C-43.66 83 -44.32 83 -45 83 C-45 83.66 -45 84.32 -45 85 C-46.42578125 86.18359375 -46.42578125 86.18359375 -48.3125 87.4375 C-50.27931244 88.75283159 -51.95706785 89.95560544 -53.60546875 91.66015625 C-55 93 -55 93 -57 93 C-57 93.66 -57 94.32 -57 95 C-58.86328125 96.5078125 -58.86328125 96.5078125 -61.3125 98.125 C-62.11300781 98.66382813 -62.91351562 99.20265625 -63.73828125 99.7578125 C-66 101 -66 101 -69 101 C-69 101.66 -69 102.32 -69 103 C-89.82113425 114.5700976 -115.90578829 126.26739942 -140.34765625 120.1640625 C-143.83885901 118.82786116 -146.34931932 117.65068068 -149 115 C-149.69223289 111.23117648 -149.55636756 108.88902597 -147.50390625 105.609375 C-143.89011704 100.95126832 -140.99800005 97.22926762 -135.4375 95.0625 C-134.53773438 94.711875 -133.63796875 94.36125 -132.7109375 94 C-130.341761 93.12606746 -127.96860356 92.32689391 -125.5625 91.5625 C-121.06654306 90.1062874 -116.84367124 88.18334009 -112.5625 86.19140625 C-109.4044205 84.72309185 -106.20404539 83.364686 -103 82 C-97.26694973 79.52755459 -91.68869906 76.86452078 -86.1640625 73.953125 C-84 73 -84 73 -81 73 C-81 72.34 -81 71.68 -81 71 C-80.47792969 70.72027344 -79.95585938 70.44054687 -79.41796875 70.15234375 C-73.0933572 66.70759035 -67.03435988 62.92764155 -61 59 C-60.01644531 58.36964844 -59.03289062 57.73929688 -58.01953125 57.08984375 C-51.87333367 53.09044222 -46.14866486 48.81071263 -40.53515625 44.09375 C-38.30668528 42.25328707 -36.0388418 40.55261768 -33.6875 38.875 C-30.41277499 36.46731013 -27.96661127 33.78664958 -25.41796875 30.63671875 C-24 29 -24 29 -21.1875 26.75 C-12.41181153 19.71116654 -6.22931781 9.26298086 0 0 Z " fill="#ffffff" transform="translate(845,563)"/>
<path d="M0 0 C2.52570871 7.57712614 -2.90877536 18.4965062 -6.375 25.4375 C-11.90824066 35.92090864 -11.90824066 35.92090864 -16 40 C-16.66 40 -17.32 40 -18 40 C-18.12375 40.763125 -18.2475 41.52625 -18.375 42.3125 C-19 45 -19 45 -21 48 C-24.34376769 56.84269816 -25.93434553 65.64747981 -27 75 C-28.32 75 -29.64 75 -31 75 C-35.88420903 60.34737292 -31.40646718 38.50442605 -25 25 C-21.55705991 18.88652165 -17.70034016 13.20848504 -13 8 C-12.29875 7.21625 -11.5975 6.4325 -10.875 5.625 C-9 4 -9 4 -6 4 C-5.67 3.01 -5.34 2.02 -5 1 C-3 0 -3 0 0 0 Z " fill="#ffffff" transform="translate(194,424)"/>
<path d="M0 0 C4.20149435 1.84276068 5.56780514 3.28896975 7.9375 7.1875 C9.39576944 12.42011388 9.22767655 17.09094035 7.1015625 22.12890625 C5.24089263 25.28940579 3.28774468 26.38496752 0 28 C-4.41743264 28.71545343 -8.83266962 29.06618672 -12.9375 27.046875 C-16.07137551 24.57111335 -18.46661261 21.66309211 -20 18 C-20.65336443 11.13967345 -19.49673243 7.06051072 -15.0625 1.625 C-10.18193555 -0.96468726 -5.40109247 -0.70989969 0 0 Z " fill="#ffffff" transform="translate(161,636)"/>
<path d="M0 0 C3.48952944 1.89449059 6.33896721 4.09421541 7.66796875 7.92578125 C8.52148539 13.25774991 8.95266628 19.30257638 6 24 C2.37791797 27.43633424 -0.63798419 28.32436045 -5.5 28.5625 C-9.20066523 28.4267419 -11.59382952 28.09673266 -14.5 25.75 C-19.09964129 20.69039458 -20.5235902 18.27874685 -20.28125 11.40234375 C-19.7411257 6.78878206 -17.82203663 4.76038388 -14.5 1.6875 C-9.59226779 -0.67872803 -5.34987463 -1.0374576 0 0 Z " fill="#ffffff" transform="translate(761,148)"/>
<path d="M0 0 C4.33012166 2.40943403 6.63942829 4.79102426 8.0625 9.5625 C8.00105941 12.94173235 7.53592606 15.01849648 6 18 C5.34 18 4.68 18 4 18 C3.67 18.99 3.34 19.98 3 21 C-0.47263273 22.73631636 -4.21193013 22.60190402 -8 22 C-10.75569447 19.81840855 -12.43588747 18.12822506 -14 15 C-14.06950541 13.45976004 -14.08452357 11.91665012 -14.0625 10.375 C-14.05347656 9.55773437 -14.04445313 8.74046875 -14.03515625 7.8984375 C-14.02355469 7.27195312 -14.01195312 6.64546875 -14 6 C-13.34 6 -12.68 6 -12 6 C-11.9175 5.38125 -11.835 4.7625 -11.75 4.125 C-11 2 -11 2 -9.375 0.75 C-5.93825392 -0.33528823 -3.59888149 -0.48798393 0 0 Z " fill="#ffffff" transform="translate(568,798)"/>
<path d="M0 0 C2.4375 1.625 2.4375 1.625 4 4 C4.51470588 9.97058824 4.51470588 9.97058824 3 13 C2.34 13 1.68 13 1 13 C1 13.66 1 14.32 1 15 C-2.17878694 16.58939347 -4.4956772 16.41576711 -8 16 C-10.98899234 13.26538998 -12.76276794 11.42339237 -13.4375 7.375 C-12.80843927 3.96009891 -12.10029067 1.85578163 -9.3125 -0.3125 C-5.88676201 -1.33096265 -3.44183926 -0.86045982 0 0 Z " fill="#ffffff" transform="translate(191,223)"/>
<path d="M0 0 C0.80566406 0.09023438 1.61132812 0.18046875 2.44140625 0.2734375 C4.4375 0.625 4.4375 0.625 5.4375 1.625 C5.67578125 3.8046875 5.67578125 3.8046875 5.75 6.5 C5.78738281 7.38429688 5.82476563 8.26859375 5.86328125 9.1796875 C5.4375 11.625 5.4375 11.625 3.60546875 13.41796875 C0.64250749 15.06761745 -1.22113021 15.11228309 -4.5625 14.625 C-7.21609262 12.68859458 -8.3234947 11.24641377 -9.5 8.1875 C-9.58179321 4.83397857 -8.55054097 3.27572129 -6.5625 0.625 C-4.06581711 -0.62334144 -2.74920849 -0.32655125 0 0 Z " fill="#ffffff" transform="translate(642.5625,807.375)"/>
<path d="M0 0 C6.38807947 -0.48211921 6.38807947 -0.48211921 9.0625 1.625 C10.38214824 4.96810888 9.38636891 6.78946147 8 10 C5.25 10.75 5.25 10.75 2 11 C-0.4375 9.375 -0.4375 9.375 -2 7 C-1.80398092 4.25573284 -1.22394754 2.44789508 0 0 Z " fill="#ffffff" transform="translate(772,204)"/>
<path d="M0 0 C2.9375 0.8125 2.9375 0.8125 4.9375 3.8125 C4.39695946 8.35304054 4.39695946 8.35304054 2.9375 9.8125 C-2.9035596 10.18336093 -2.9035596 10.18336093 -5.0625 9.8125 C-7.0625 6.8125 -7.0625 6.8125 -6.875 4.25 C-5.6005829 0.42674869 -3.91065027 -0.23942757 0 0 Z " fill="#ffffff" transform="translate(151.0625,590.1875)"/>
</svg>
